<mxfile host="app.diagrams.net" modified="2023-07-25T19:17:12.559Z" agent="Mozilla/5.0 (Windows NT 10.0; Win64; x64) AppleWebKit/537.36 (KHTML, like Gecko) Chrome/115.0.0.0 Safari/537.36 Edg/115.0.1901.183" etag="z3qNKtLH9UwAfGcdC5qV" version="21.6.5" type="device">
  <diagram name="Página-1" id="k2U8ghZzEBZ1o63kVbij">
    <mxGraphModel dx="1750" dy="968" grid="1" gridSize="10" guides="1" tooltips="1" connect="1" arrows="1" fold="1" page="1" pageScale="1" pageWidth="827" pageHeight="1169" math="0" shadow="0">
      <root>
        <mxCell id="0" />
        <mxCell id="1" parent="0" />
        <mxCell id="J2g_wQo7Tr7_5WpDTuVl-1" value="Uma clínica veterinária deseja cadastrar os pets que são atendidos em seu local.&#xa;&#xa;&#xa;- a clínica contém um endereço;&#xa;- os pets deverão ter nome, data de nascimento, tipo de pet;&#xa;- os pets deverão ter raça;&#xa;- os pets deverão ter donos;&#xa;- a clínica deseja cadastrar seus veterinários e todo atendimento de pet será feito por um veterinário;" style="text;whiteSpace=wrap;" parent="1" vertex="1">
          <mxGeometry x="134" width="556" height="130" as="geometry" />
        </mxCell>
        <mxCell id="ooKKar58AUR-8NpLq8LR-20" style="edgeStyle=orthogonalEdgeStyle;rounded=0;orthogonalLoop=1;jettySize=auto;html=1;entryX=0.5;entryY=0;entryDx=0;entryDy=0;endArrow=none;endFill=0;" edge="1" parent="1" source="J2g_wQo7Tr7_5WpDTuVl-2" target="J2g_wQo7Tr7_5WpDTuVl-25">
          <mxGeometry relative="1" as="geometry" />
        </mxCell>
        <mxCell id="J2g_wQo7Tr7_5WpDTuVl-2" value="CLINICA" style="html=1;whiteSpace=wrap;" parent="1" vertex="1">
          <mxGeometry x="310" y="200" width="110" height="50" as="geometry" />
        </mxCell>
        <mxCell id="ooKKar58AUR-8NpLq8LR-18" style="edgeStyle=orthogonalEdgeStyle;rounded=0;orthogonalLoop=1;jettySize=auto;html=1;entryX=0.5;entryY=0;entryDx=0;entryDy=0;endArrow=none;endFill=0;curved=1;" edge="1" parent="1" source="J2g_wQo7Tr7_5WpDTuVl-7" target="J2g_wQo7Tr7_5WpDTuVl-2">
          <mxGeometry relative="1" as="geometry" />
        </mxCell>
        <mxCell id="J2g_wQo7Tr7_5WpDTuVl-7" value="endereco" style="ellipse;whiteSpace=wrap;html=1;" parent="1" vertex="1">
          <mxGeometry x="440" y="150" width="70" height="50" as="geometry" />
        </mxCell>
        <mxCell id="ooKKar58AUR-8NpLq8LR-41" style="edgeStyle=orthogonalEdgeStyle;rounded=0;orthogonalLoop=1;jettySize=auto;html=1;entryX=1;entryY=0.5;entryDx=0;entryDy=0;curved=1;exitX=0;exitY=0.75;exitDx=0;exitDy=0;endArrow=none;endFill=0;" edge="1" parent="1" source="J2g_wQo7Tr7_5WpDTuVl-9" target="ooKKar58AUR-8NpLq8LR-42">
          <mxGeometry relative="1" as="geometry">
            <mxPoint x="320" y="847.5" as="sourcePoint" />
            <mxPoint x="210" y="960" as="targetPoint" />
            <Array as="points">
              <mxPoint x="300" y="868" />
              <mxPoint x="300" y="935" />
            </Array>
          </mxGeometry>
        </mxCell>
        <mxCell id="J2g_wQo7Tr7_5WpDTuVl-9" value="PETS" style="html=1;whiteSpace=wrap;" parent="1" vertex="1">
          <mxGeometry x="310" y="830" width="110" height="50" as="geometry" />
        </mxCell>
        <mxCell id="ooKKar58AUR-8NpLq8LR-16" style="edgeStyle=orthogonalEdgeStyle;rounded=0;orthogonalLoop=1;jettySize=auto;html=1;entryX=1;entryY=0.25;entryDx=0;entryDy=0;endArrow=none;endFill=0;curved=1;" edge="1" parent="1" source="J2g_wQo7Tr7_5WpDTuVl-12" target="J2g_wQo7Tr7_5WpDTuVl-9">
          <mxGeometry relative="1" as="geometry" />
        </mxCell>
        <mxCell id="J2g_wQo7Tr7_5WpDTuVl-12" value="nome" style="ellipse;whiteSpace=wrap;html=1;" parent="1" vertex="1">
          <mxGeometry x="470" y="780" width="80" height="60" as="geometry" />
        </mxCell>
        <mxCell id="ooKKar58AUR-8NpLq8LR-15" style="edgeStyle=orthogonalEdgeStyle;rounded=0;orthogonalLoop=1;jettySize=auto;html=1;entryX=1;entryY=0.5;entryDx=0;entryDy=0;endArrow=none;endFill=0;curved=1;" edge="1" parent="1" source="J2g_wQo7Tr7_5WpDTuVl-15" target="J2g_wQo7Tr7_5WpDTuVl-9">
          <mxGeometry relative="1" as="geometry" />
        </mxCell>
        <mxCell id="J2g_wQo7Tr7_5WpDTuVl-15" value="data de nascimento" style="ellipse;whiteSpace=wrap;html=1;" parent="1" vertex="1">
          <mxGeometry x="480" y="850" width="80" height="60" as="geometry" />
        </mxCell>
        <mxCell id="ooKKar58AUR-8NpLq8LR-39" style="edgeStyle=orthogonalEdgeStyle;rounded=0;orthogonalLoop=1;jettySize=auto;html=1;entryX=0;entryY=0.5;entryDx=0;entryDy=0;endArrow=none;endFill=0;" edge="1" parent="1" source="J2g_wQo7Tr7_5WpDTuVl-20" target="J2g_wQo7Tr7_5WpDTuVl-42">
          <mxGeometry relative="1" as="geometry" />
        </mxCell>
        <mxCell id="J2g_wQo7Tr7_5WpDTuVl-20" value="DONO" style="html=1;whiteSpace=wrap;" parent="1" vertex="1">
          <mxGeometry x="40" y="830" width="110" height="50" as="geometry" />
        </mxCell>
        <mxCell id="ooKKar58AUR-8NpLq8LR-21" style="edgeStyle=orthogonalEdgeStyle;rounded=0;orthogonalLoop=1;jettySize=auto;html=1;entryX=0.5;entryY=1;entryDx=0;entryDy=0;endArrow=none;endFill=0;" edge="1" parent="1" source="J2g_wQo7Tr7_5WpDTuVl-24" target="J2g_wQo7Tr7_5WpDTuVl-25">
          <mxGeometry relative="1" as="geometry" />
        </mxCell>
        <mxCell id="J2g_wQo7Tr7_5WpDTuVl-24" value="VETERINARIO" style="html=1;whiteSpace=wrap;" parent="1" vertex="1">
          <mxGeometry x="310" y="420" width="110" height="50" as="geometry" />
        </mxCell>
        <mxCell id="J2g_wQo7Tr7_5WpDTuVl-25" value="possui" style="rhombus;whiteSpace=wrap;html=1;" parent="1" vertex="1">
          <mxGeometry x="335" y="310" width="60" height="50" as="geometry" />
        </mxCell>
        <mxCell id="ooKKar58AUR-8NpLq8LR-40" style="edgeStyle=orthogonalEdgeStyle;rounded=0;orthogonalLoop=1;jettySize=auto;html=1;endArrow=none;endFill=0;entryX=0;entryY=0.5;entryDx=0;entryDy=0;" edge="1" parent="1" source="J2g_wQo7Tr7_5WpDTuVl-42" target="J2g_wQo7Tr7_5WpDTuVl-9">
          <mxGeometry relative="1" as="geometry" />
        </mxCell>
        <mxCell id="J2g_wQo7Tr7_5WpDTuVl-42" value="possui" style="rhombus;whiteSpace=wrap;html=1;" parent="1" vertex="1">
          <mxGeometry x="200" y="830" width="60" height="50" as="geometry" />
        </mxCell>
        <mxCell id="ooKKar58AUR-8NpLq8LR-5" value="TIPOS DE PET" style="html=1;whiteSpace=wrap;" vertex="1" parent="1">
          <mxGeometry x="304" y="1000" width="110" height="50" as="geometry" />
        </mxCell>
        <mxCell id="ooKKar58AUR-8NpLq8LR-43" style="edgeStyle=orthogonalEdgeStyle;rounded=0;orthogonalLoop=1;jettySize=auto;html=1;entryX=0;entryY=0.5;entryDx=0;entryDy=0;endArrow=none;endFill=0;" edge="1" parent="1" source="ooKKar58AUR-8NpLq8LR-19" target="ooKKar58AUR-8NpLq8LR-42">
          <mxGeometry relative="1" as="geometry" />
        </mxCell>
        <mxCell id="ooKKar58AUR-8NpLq8LR-19" value="RACA" style="html=1;whiteSpace=wrap;" vertex="1" parent="1">
          <mxGeometry x="24" y="910" width="110" height="50" as="geometry" />
        </mxCell>
        <mxCell id="ooKKar58AUR-8NpLq8LR-22" value="ATENDIMENTO" style="html=1;whiteSpace=wrap;" vertex="1" parent="1">
          <mxGeometry x="310" y="640" width="110" height="50" as="geometry" />
        </mxCell>
        <mxCell id="ooKKar58AUR-8NpLq8LR-24" style="edgeStyle=orthogonalEdgeStyle;rounded=0;orthogonalLoop=1;jettySize=auto;html=1;entryX=0.5;entryY=0;entryDx=0;entryDy=0;endArrow=none;endFill=0;exitX=0.5;exitY=1;exitDx=0;exitDy=0;" edge="1" target="ooKKar58AUR-8NpLq8LR-26" parent="1" source="J2g_wQo7Tr7_5WpDTuVl-24">
          <mxGeometry relative="1" as="geometry">
            <mxPoint x="365" y="490" as="sourcePoint" />
          </mxGeometry>
        </mxCell>
        <mxCell id="ooKKar58AUR-8NpLq8LR-25" style="edgeStyle=orthogonalEdgeStyle;rounded=0;orthogonalLoop=1;jettySize=auto;html=1;entryX=0.5;entryY=1;entryDx=0;entryDy=0;endArrow=none;endFill=0;exitX=0.5;exitY=0;exitDx=0;exitDy=0;" edge="1" target="ooKKar58AUR-8NpLq8LR-26" parent="1" source="ooKKar58AUR-8NpLq8LR-22">
          <mxGeometry relative="1" as="geometry">
            <mxPoint x="365" y="640" as="sourcePoint" />
          </mxGeometry>
        </mxCell>
        <mxCell id="ooKKar58AUR-8NpLq8LR-26" value="possui" style="rhombus;whiteSpace=wrap;html=1;" vertex="1" parent="1">
          <mxGeometry x="335" y="530" width="60" height="50" as="geometry" />
        </mxCell>
        <mxCell id="ooKKar58AUR-8NpLq8LR-30" style="edgeStyle=orthogonalEdgeStyle;rounded=0;orthogonalLoop=1;jettySize=auto;html=1;entryX=0.5;entryY=0;entryDx=0;entryDy=0;endArrow=none;endFill=0;exitX=0.5;exitY=1;exitDx=0;exitDy=0;" edge="1" target="ooKKar58AUR-8NpLq8LR-32" parent="1" source="ooKKar58AUR-8NpLq8LR-22">
          <mxGeometry relative="1" as="geometry">
            <mxPoint x="365" y="695" as="sourcePoint" />
          </mxGeometry>
        </mxCell>
        <mxCell id="ooKKar58AUR-8NpLq8LR-31" style="edgeStyle=orthogonalEdgeStyle;rounded=0;orthogonalLoop=1;jettySize=auto;html=1;entryX=0.5;entryY=1;entryDx=0;entryDy=0;endArrow=none;endFill=0;exitX=0.5;exitY=0;exitDx=0;exitDy=0;" edge="1" target="ooKKar58AUR-8NpLq8LR-32" parent="1" source="J2g_wQo7Tr7_5WpDTuVl-9">
          <mxGeometry relative="1" as="geometry">
            <mxPoint x="365" y="840" as="sourcePoint" />
          </mxGeometry>
        </mxCell>
        <mxCell id="ooKKar58AUR-8NpLq8LR-32" value="possui" style="rhombus;whiteSpace=wrap;html=1;" vertex="1" parent="1">
          <mxGeometry x="335" y="740" width="60" height="50" as="geometry" />
        </mxCell>
        <mxCell id="ooKKar58AUR-8NpLq8LR-33" style="edgeStyle=orthogonalEdgeStyle;rounded=0;orthogonalLoop=1;jettySize=auto;html=1;entryX=0.5;entryY=0;entryDx=0;entryDy=0;endArrow=none;endFill=0;exitX=0.545;exitY=1;exitDx=0;exitDy=0;exitPerimeter=0;" edge="1" target="ooKKar58AUR-8NpLq8LR-35" parent="1" source="J2g_wQo7Tr7_5WpDTuVl-9">
          <mxGeometry relative="1" as="geometry">
            <mxPoint x="365" y="880" as="sourcePoint" />
          </mxGeometry>
        </mxCell>
        <mxCell id="ooKKar58AUR-8NpLq8LR-38" style="edgeStyle=orthogonalEdgeStyle;rounded=0;orthogonalLoop=1;jettySize=auto;html=1;entryX=0.555;entryY=0;entryDx=0;entryDy=0;entryPerimeter=0;endArrow=none;endFill=0;" edge="1" parent="1" source="ooKKar58AUR-8NpLq8LR-35" target="ooKKar58AUR-8NpLq8LR-5">
          <mxGeometry relative="1" as="geometry" />
        </mxCell>
        <mxCell id="ooKKar58AUR-8NpLq8LR-35" value="possui" style="rhombus;whiteSpace=wrap;html=1;" vertex="1" parent="1">
          <mxGeometry x="335" y="910" width="60" height="50" as="geometry" />
        </mxCell>
        <mxCell id="ooKKar58AUR-8NpLq8LR-36" value="1" style="text;html=1;align=center;verticalAlign=middle;resizable=0;points=[];autosize=1;strokeColor=none;fillColor=none;" vertex="1" parent="1">
          <mxGeometry x="365" y="248" width="30" height="30" as="geometry" />
        </mxCell>
        <mxCell id="ooKKar58AUR-8NpLq8LR-37" value="n" style="text;html=1;align=center;verticalAlign=middle;resizable=0;points=[];autosize=1;strokeColor=none;fillColor=none;" vertex="1" parent="1">
          <mxGeometry x="360" y="390" width="30" height="30" as="geometry" />
        </mxCell>
        <mxCell id="ooKKar58AUR-8NpLq8LR-42" value="possui" style="rhombus;whiteSpace=wrap;html=1;" vertex="1" parent="1">
          <mxGeometry x="200" y="910" width="60" height="50" as="geometry" />
        </mxCell>
        <mxCell id="ooKKar58AUR-8NpLq8LR-44" value="1" style="text;html=1;strokeColor=none;fillColor=none;align=center;verticalAlign=middle;whiteSpace=wrap;rounded=0;" vertex="1" parent="1">
          <mxGeometry x="140" y="830" width="60" height="30" as="geometry" />
        </mxCell>
        <mxCell id="ooKKar58AUR-8NpLq8LR-45" value="n" style="text;html=1;strokeColor=none;fillColor=none;align=center;verticalAlign=middle;whiteSpace=wrap;rounded=0;" vertex="1" parent="1">
          <mxGeometry x="270" y="830" width="60" height="30" as="geometry" />
        </mxCell>
        <mxCell id="ooKKar58AUR-8NpLq8LR-46" value="n" style="text;html=1;strokeColor=none;fillColor=none;align=center;verticalAlign=middle;whiteSpace=wrap;rounded=0;" vertex="1" parent="1">
          <mxGeometry x="354" y="880" width="60" height="30" as="geometry" />
        </mxCell>
        <mxCell id="ooKKar58AUR-8NpLq8LR-47" value="1" style="text;html=1;strokeColor=none;fillColor=none;align=center;verticalAlign=middle;whiteSpace=wrap;rounded=0;" vertex="1" parent="1">
          <mxGeometry x="360" y="970" width="60" height="30" as="geometry" />
        </mxCell>
        <mxCell id="ooKKar58AUR-8NpLq8LR-48" value="n" style="text;html=1;align=center;verticalAlign=middle;resizable=0;points=[];autosize=1;strokeColor=none;fillColor=none;" vertex="1" parent="1">
          <mxGeometry x="369" y="470" width="30" height="30" as="geometry" />
        </mxCell>
        <mxCell id="ooKKar58AUR-8NpLq8LR-50" value="1" style="text;html=1;align=center;verticalAlign=middle;resizable=0;points=[];autosize=1;strokeColor=none;fillColor=none;" vertex="1" parent="1">
          <mxGeometry x="365" y="610" width="30" height="30" as="geometry" />
        </mxCell>
        <mxCell id="ooKKar58AUR-8NpLq8LR-51" value="n" style="text;html=1;strokeColor=none;fillColor=none;align=center;verticalAlign=middle;whiteSpace=wrap;rounded=0;" vertex="1" parent="1">
          <mxGeometry x="250" y="900" width="60" height="30" as="geometry" />
        </mxCell>
        <mxCell id="ooKKar58AUR-8NpLq8LR-52" value="1" style="text;html=1;strokeColor=none;fillColor=none;align=center;verticalAlign=middle;whiteSpace=wrap;rounded=0;" vertex="1" parent="1">
          <mxGeometry x="140" y="900" width="60" height="30" as="geometry" />
        </mxCell>
      </root>
    </mxGraphModel>
  </diagram>
</mxfile>
